<mxfile host="app.diagrams.net" modified="2023-08-16T21:33:19.426Z" agent="Mozilla/5.0 (Windows NT 10.0; Win64; x64) AppleWebKit/537.36 (KHTML, like Gecko) Chrome/116.0.0.0 Safari/537.36" etag="I8WtrD5I4tsyOOYyUBCO" version="21.6.8" type="github">
  <diagram id="R2lEEEUBdFMjLlhIrx00" name="Page-1">
    <mxGraphModel dx="954" dy="578" grid="1" gridSize="10" guides="1" tooltips="1" connect="1" arrows="1" fold="1" page="1" pageScale="1" pageWidth="850" pageHeight="1100" math="0" shadow="0" extFonts="Permanent Marker^https://fonts.googleapis.com/css?family=Permanent+Marker">
      <root>
        <mxCell id="0" />
        <mxCell id="1" parent="0" />
        <mxCell id="31LP4swY4RAV0IvSmYvw-1" value="&lt;font style=&quot;vertical-align: inherit;&quot;&gt;&lt;font style=&quot;vertical-align: inherit;&quot;&gt;Funcao&lt;/font&gt;&lt;/font&gt;" style="rounded=0;whiteSpace=wrap;html=1;" parent="1" vertex="1">
          <mxGeometry x="540" y="370" width="120" height="60" as="geometry" />
        </mxCell>
        <mxCell id="31LP4swY4RAV0IvSmYvw-2" value="&lt;font style=&quot;vertical-align: inherit;&quot;&gt;&lt;font style=&quot;vertical-align: inherit;&quot;&gt;Personagem&lt;/font&gt;&lt;/font&gt;" style="rounded=0;whiteSpace=wrap;html=1;" parent="1" vertex="1">
          <mxGeometry x="386" y="120" width="120" height="60" as="geometry" />
        </mxCell>
        <mxCell id="m_m8KjVfot6xPL1HtwaW-6" style="edgeStyle=orthogonalEdgeStyle;rounded=0;orthogonalLoop=1;jettySize=auto;html=1;exitX=0.5;exitY=0;exitDx=0;exitDy=0;entryX=1;entryY=0.5;entryDx=0;entryDy=0;endArrow=none;endFill=0;" edge="1" parent="1" source="31LP4swY4RAV0IvSmYvw-3" target="31LP4swY4RAV0IvSmYvw-2">
          <mxGeometry relative="1" as="geometry" />
        </mxCell>
        <mxCell id="m_m8KjVfot6xPL1HtwaW-9" style="edgeStyle=orthogonalEdgeStyle;rounded=0;orthogonalLoop=1;jettySize=auto;html=1;exitX=0.5;exitY=1;exitDx=0;exitDy=0;entryX=0.5;entryY=0;entryDx=0;entryDy=0;endArrow=none;endFill=0;" edge="1" parent="1" source="31LP4swY4RAV0IvSmYvw-3" target="31LP4swY4RAV0IvSmYvw-1">
          <mxGeometry relative="1" as="geometry" />
        </mxCell>
        <mxCell id="31LP4swY4RAV0IvSmYvw-3" value="&lt;font style=&quot;vertical-align: inherit;&quot;&gt;&lt;font style=&quot;vertical-align: inherit;&quot;&gt;Adquiri&lt;/font&gt;&lt;/font&gt;" style="rhombus;whiteSpace=wrap;html=1;" parent="1" vertex="1">
          <mxGeometry x="540" y="240" width="120" height="70" as="geometry" />
        </mxCell>
        <mxCell id="31LP4swY4RAV0IvSmYvw-6" value="&lt;font style=&quot;vertical-align: inherit;&quot;&gt;&lt;font style=&quot;vertical-align: inherit;&quot;&gt;1&lt;/font&gt;&lt;/font&gt;" style="text;html=1;align=center;verticalAlign=middle;resizable=0;points=[];autosize=1;strokeColor=none;fillColor=none;" parent="1" vertex="1">
          <mxGeometry x="260" y="340" width="30" height="30" as="geometry" />
        </mxCell>
        <mxCell id="31LP4swY4RAV0IvSmYvw-7" value="&lt;font style=&quot;vertical-align: inherit;&quot;&gt;&lt;font style=&quot;vertical-align: inherit;&quot;&gt;N&lt;/font&gt;&lt;/font&gt;" style="text;html=1;align=center;verticalAlign=middle;resizable=0;points=[];autosize=1;strokeColor=none;fillColor=none;" parent="1" vertex="1">
          <mxGeometry x="356" y="120" width="30" height="30" as="geometry" />
        </mxCell>
        <mxCell id="m_m8KjVfot6xPL1HtwaW-2" value="&lt;font style=&quot;vertical-align: inherit;&quot;&gt;&lt;font style=&quot;vertical-align: inherit;&quot;&gt;Poder&lt;/font&gt;&lt;/font&gt;" style="rounded=0;whiteSpace=wrap;html=1;" vertex="1" parent="1">
          <mxGeometry x="230" y="370" width="120" height="60" as="geometry" />
        </mxCell>
        <mxCell id="m_m8KjVfot6xPL1HtwaW-7" style="edgeStyle=orthogonalEdgeStyle;rounded=0;orthogonalLoop=1;jettySize=auto;html=1;exitX=0.5;exitY=0;exitDx=0;exitDy=0;entryX=0;entryY=0.5;entryDx=0;entryDy=0;endArrow=none;endFill=0;" edge="1" parent="1" source="m_m8KjVfot6xPL1HtwaW-5" target="31LP4swY4RAV0IvSmYvw-2">
          <mxGeometry relative="1" as="geometry" />
        </mxCell>
        <mxCell id="m_m8KjVfot6xPL1HtwaW-8" style="edgeStyle=orthogonalEdgeStyle;rounded=0;orthogonalLoop=1;jettySize=auto;html=1;exitX=0.5;exitY=1;exitDx=0;exitDy=0;entryX=0.5;entryY=0;entryDx=0;entryDy=0;endArrow=none;endFill=0;" edge="1" parent="1" source="m_m8KjVfot6xPL1HtwaW-5" target="m_m8KjVfot6xPL1HtwaW-2">
          <mxGeometry relative="1" as="geometry" />
        </mxCell>
        <mxCell id="m_m8KjVfot6xPL1HtwaW-5" value="&lt;font style=&quot;vertical-align: inherit;&quot;&gt;&lt;font style=&quot;vertical-align: inherit;&quot;&gt;Possui&lt;/font&gt;&lt;/font&gt;" style="rhombus;whiteSpace=wrap;html=1;" vertex="1" parent="1">
          <mxGeometry x="230" y="240" width="120" height="70" as="geometry" />
        </mxCell>
        <mxCell id="m_m8KjVfot6xPL1HtwaW-10" value="&lt;font style=&quot;vertical-align: inherit;&quot;&gt;&lt;font style=&quot;vertical-align: inherit;&quot;&gt;N&lt;/font&gt;&lt;/font&gt;" style="text;html=1;align=center;verticalAlign=middle;resizable=0;points=[];autosize=1;strokeColor=none;fillColor=none;" vertex="1" parent="1">
          <mxGeometry x="506" y="120" width="30" height="30" as="geometry" />
        </mxCell>
        <mxCell id="m_m8KjVfot6xPL1HtwaW-11" value="&lt;font style=&quot;vertical-align: inherit;&quot;&gt;&lt;font style=&quot;vertical-align: inherit;&quot;&gt;1&lt;/font&gt;&lt;/font&gt;" style="text;html=1;align=center;verticalAlign=middle;resizable=0;points=[];autosize=1;strokeColor=none;fillColor=none;" vertex="1" parent="1">
          <mxGeometry x="600" y="340" width="30" height="30" as="geometry" />
        </mxCell>
        <mxCell id="m_m8KjVfot6xPL1HtwaW-12" value="" style="endArrow=none;html=1;rounded=0;entryX=0.25;entryY=0;entryDx=0;entryDy=0;endFill=0;startArrow=oval;startFill=1;" edge="1" parent="1">
          <mxGeometry width="50" height="50" relative="1" as="geometry">
            <mxPoint x="417" y="50" as="sourcePoint" />
            <mxPoint x="417" y="120" as="targetPoint" />
          </mxGeometry>
        </mxCell>
        <mxCell id="m_m8KjVfot6xPL1HtwaW-13" value="IdPerso" style="text;html=1;align=center;verticalAlign=middle;resizable=0;points=[];autosize=1;strokeColor=none;fillColor=none;fontSize=10;" vertex="1" parent="1">
          <mxGeometry x="410" y="35" width="60" height="30" as="geometry" />
        </mxCell>
        <mxCell id="m_m8KjVfot6xPL1HtwaW-14" value="" style="endArrow=none;html=1;rounded=0;endFill=0;startArrow=oval;startFill=0;strokeColor=#121212;" edge="1" parent="1">
          <mxGeometry width="50" height="50" relative="1" as="geometry">
            <mxPoint x="427" y="66" as="sourcePoint" />
            <mxPoint x="427" y="120" as="targetPoint" />
          </mxGeometry>
        </mxCell>
        <mxCell id="m_m8KjVfot6xPL1HtwaW-15" value="Nome" style="text;html=1;align=center;verticalAlign=middle;resizable=0;points=[];autosize=1;strokeColor=none;fillColor=none;fontSize=10;" vertex="1" parent="1">
          <mxGeometry x="421" y="51" width="50" height="30" as="geometry" />
        </mxCell>
        <mxCell id="m_m8KjVfot6xPL1HtwaW-16" value="" style="endArrow=none;html=1;rounded=0;endFill=0;startArrow=oval;startFill=0;strokeColor=#121212;" edge="1" parent="1">
          <mxGeometry width="50" height="50" relative="1" as="geometry">
            <mxPoint x="437" y="80" as="sourcePoint" />
            <mxPoint x="437" y="120" as="targetPoint" />
          </mxGeometry>
        </mxCell>
        <mxCell id="m_m8KjVfot6xPL1HtwaW-17" value="Origem" style="text;html=1;align=center;verticalAlign=middle;resizable=0;points=[];autosize=1;strokeColor=none;fillColor=none;fontSize=10;" vertex="1" parent="1">
          <mxGeometry x="429" y="65" width="60" height="30" as="geometry" />
        </mxCell>
        <mxCell id="m_m8KjVfot6xPL1HtwaW-18" value="" style="endArrow=none;html=1;rounded=0;endFill=0;startArrow=oval;startFill=0;strokeColor=#121212;" edge="1" parent="1">
          <mxGeometry width="50" height="50" relative="1" as="geometry">
            <mxPoint x="447" y="100" as="sourcePoint" />
            <mxPoint x="447" y="120" as="targetPoint" />
          </mxGeometry>
        </mxCell>
        <mxCell id="m_m8KjVfot6xPL1HtwaW-19" value="Apelido" style="text;html=1;align=left;verticalAlign=middle;resizable=0;points=[];autosize=1;strokeColor=none;fillColor=none;fontSize=10;" vertex="1" parent="1">
          <mxGeometry x="450" y="85" width="60" height="30" as="geometry" />
        </mxCell>
        <mxCell id="m_m8KjVfot6xPL1HtwaW-20" value="" style="endArrow=none;html=1;rounded=0;endFill=0;startArrow=oval;startFill=0;strokeColor=#121212;entryX=0.25;entryY=1;entryDx=0;entryDy=0;" edge="1" parent="1" target="31LP4swY4RAV0IvSmYvw-2">
          <mxGeometry width="50" height="50" relative="1" as="geometry">
            <mxPoint x="416" y="230" as="sourcePoint" />
            <mxPoint x="447" y="130" as="targetPoint" />
          </mxGeometry>
        </mxCell>
        <mxCell id="m_m8KjVfot6xPL1HtwaW-21" value="Metas" style="text;html=1;align=center;verticalAlign=middle;resizable=0;points=[];autosize=1;strokeColor=none;fillColor=none;fontSize=10;" vertex="1" parent="1">
          <mxGeometry x="412" y="215" width="50" height="30" as="geometry" />
        </mxCell>
        <mxCell id="m_m8KjVfot6xPL1HtwaW-22" value="" style="endArrow=none;html=1;rounded=0;endFill=0;startArrow=oval;startFill=0;strokeColor=#121212;entryX=0.367;entryY=1;entryDx=0;entryDy=0;entryPerimeter=0;" edge="1" parent="1" target="31LP4swY4RAV0IvSmYvw-2">
          <mxGeometry width="50" height="50" relative="1" as="geometry">
            <mxPoint x="430" y="210" as="sourcePoint" />
            <mxPoint x="426" y="190" as="targetPoint" />
          </mxGeometry>
        </mxCell>
        <mxCell id="m_m8KjVfot6xPL1HtwaW-23" value="CodPoder" style="text;html=1;align=center;verticalAlign=middle;resizable=0;points=[];autosize=1;strokeColor=none;fillColor=none;fontSize=10;fontStyle=4" vertex="1" parent="1">
          <mxGeometry x="423" y="194" width="70" height="30" as="geometry" />
        </mxCell>
        <mxCell id="m_m8KjVfot6xPL1HtwaW-25" value="" style="endArrow=none;html=1;rounded=0;endFill=0;startArrow=oval;startFill=0;strokeColor=#121212;entryX=0.5;entryY=1;entryDx=0;entryDy=0;" edge="1" parent="1" target="31LP4swY4RAV0IvSmYvw-2">
          <mxGeometry width="50" height="50" relative="1" as="geometry">
            <mxPoint x="446" y="190" as="sourcePoint" />
            <mxPoint x="436" y="200" as="targetPoint" />
          </mxGeometry>
        </mxCell>
        <mxCell id="m_m8KjVfot6xPL1HtwaW-26" value="CodFunc" style="text;html=1;align=center;verticalAlign=middle;resizable=0;points=[];autosize=1;strokeColor=none;fillColor=none;fontSize=10;fontStyle=4" vertex="1" parent="1">
          <mxGeometry x="442" y="174" width="60" height="30" as="geometry" />
        </mxCell>
        <mxCell id="m_m8KjVfot6xPL1HtwaW-28" value="" style="endArrow=none;html=1;rounded=0;endFill=0;startArrow=oval;startFill=1;entryX=0.5;entryY=1;entryDx=0;entryDy=0;" edge="1" parent="1" target="m_m8KjVfot6xPL1HtwaW-2">
          <mxGeometry width="50" height="50" relative="1" as="geometry">
            <mxPoint x="290" y="470" as="sourcePoint" />
            <mxPoint x="290" y="470" as="targetPoint" />
          </mxGeometry>
        </mxCell>
        <mxCell id="m_m8KjVfot6xPL1HtwaW-29" value="IdPoder" style="text;html=1;align=center;verticalAlign=middle;resizable=0;points=[];autosize=1;strokeColor=none;fillColor=none;fontSize=10;" vertex="1" parent="1">
          <mxGeometry x="285" y="455" width="60" height="30" as="geometry" />
        </mxCell>
        <mxCell id="m_m8KjVfot6xPL1HtwaW-30" value="" style="endArrow=none;html=1;rounded=0;endFill=0;startArrow=oval;startFill=0;strokeColor=#121212;entryX=0.608;entryY=1.017;entryDx=0;entryDy=0;entryPerimeter=0;" edge="1" parent="1" target="m_m8KjVfot6xPL1HtwaW-2">
          <mxGeometry width="50" height="50" relative="1" as="geometry">
            <mxPoint x="303" y="450" as="sourcePoint" />
            <mxPoint x="437" y="130" as="targetPoint" />
          </mxGeometry>
        </mxCell>
        <mxCell id="m_m8KjVfot6xPL1HtwaW-31" value="Resp" style="text;html=1;align=center;verticalAlign=middle;resizable=0;points=[];autosize=1;strokeColor=none;fillColor=none;fontSize=10;" vertex="1" parent="1">
          <mxGeometry x="297" y="435" width="50" height="30" as="geometry" />
        </mxCell>
        <mxCell id="m_m8KjVfot6xPL1HtwaW-32" value="" style="endArrow=none;html=1;rounded=0;endFill=0;startArrow=oval;startFill=1;entryX=0.5;entryY=1;entryDx=0;entryDy=0;" edge="1" parent="1" target="31LP4swY4RAV0IvSmYvw-1">
          <mxGeometry width="50" height="50" relative="1" as="geometry">
            <mxPoint x="600" y="470" as="sourcePoint" />
            <mxPoint x="300" y="440" as="targetPoint" />
          </mxGeometry>
        </mxCell>
        <mxCell id="m_m8KjVfot6xPL1HtwaW-33" value="IdFunc" style="text;html=1;align=center;verticalAlign=middle;resizable=0;points=[];autosize=1;strokeColor=none;fillColor=none;fontSize=10;" vertex="1" parent="1">
          <mxGeometry x="598" y="455" width="50" height="30" as="geometry" />
        </mxCell>
        <mxCell id="m_m8KjVfot6xPL1HtwaW-34" value="" style="endArrow=none;html=1;rounded=0;endFill=0;startArrow=oval;startFill=0;strokeColor=#121212;entryX=0.642;entryY=1;entryDx=0;entryDy=0;entryPerimeter=0;" edge="1" parent="1" target="31LP4swY4RAV0IvSmYvw-1">
          <mxGeometry width="50" height="50" relative="1" as="geometry">
            <mxPoint x="617" y="450" as="sourcePoint" />
            <mxPoint x="610" y="430" as="targetPoint" />
          </mxGeometry>
        </mxCell>
        <mxCell id="m_m8KjVfot6xPL1HtwaW-35" value="TipoFunc" style="text;html=1;align=center;verticalAlign=middle;resizable=0;points=[];autosize=1;strokeColor=none;fillColor=none;fontSize=10;" vertex="1" parent="1">
          <mxGeometry x="615" y="435" width="60" height="30" as="geometry" />
        </mxCell>
      </root>
    </mxGraphModel>
  </diagram>
</mxfile>
